PathFileType	4	(X/Y/Z)	/home/mitkof6/dev/sinergia_osimrl/data/02761/02761_PRE/experimental_data/task.trc
DataRate	CameraRate	NumFrames	NumMarkers	Units	OrigDataRate	OrigDataStartFrame	OrigNumFrames
100.000000	100.000000	4	43	mm	100.000000	177	354
Frame#	Time	C7			CLAV			LANK			LASI			LBHD			LELB			LFHD			LFIN			LHEE			LKNE			LMED			LMET			LMIF			LPSI			LSHO			LTHI			LTIB			LTOE			LTTU			LWRA			LWRB			RANK			RASI			RBAK			RBHD			RELB			RFHD			RFIN			RHEE			RKNE			RMED			RMET			RMIF			RPSI			RSHO			RTHI			RTIB			RTOE			RTTU			RWRA			RWRB			STRN			T10			
		X1	Y1	Z1	X2	Y2	Z2	X3	Y3	Z3	X4	Y4	Z4	X5	Y5	Z5	X6	Y6	Z6	X7	Y7	Z7	X8	Y8	Z8	X9	Y9	Z9	X10	Y10	Z10	X11	Y11	Z11	X12	Y12	Z12	X13	Y13	Z13	X14	Y14	Z14	X15	Y15	Z15	X16	Y16	Z16	X17	Y17	Z17	X18	Y18	Z18	X19	Y19	Z19	X20	Y20	Z20	X21	Y21	Z21	X22	Y22	Z22	X23	Y23	Z23	X24	Y24	Z24	X25	Y25	Z25	X26	Y26	Z26	X27	Y27	Z27	X28	Y28	Z28	X29	Y29	Z29	X30	Y30	Z30	X31	Y31	Z31	X32	Y32	Z32	X33	Y33	Z33	X34	Y34	Z34	X35	Y35	Z35	X36	Y36	Z36	X37	Y37	Z37	X38	Y38	Z38	X39	Y39	Z39	X40	Y40	Z40	X41	Y41	Z41	X42	Y42	Z42	X43	Y43	Z43	

178	1.77	205.9601287841797	1206.485717773438	-360.9409484863278	311.0768737792969	1126.95947265625	-371.1278991699216	24.48818206787109	164.9675140380861	-474.2078552246093	250.0458221435547	798.8859252929689	-463.0511474609373	229.8690795898438	1327.2353515625	-405.382385253906	215.1544952392578	935.3281250000001	-571.9068603515623	357.9667358398438	1355.199096679688	-400.8518066406247	323.2782287597656	682.8294067382814	-651.6195068359374	-21.7281608581543	178.5258789062501	-426.9014892578124	282.1526794433594	426.9002380371095	-493.7510681152343	50.44424819946289	159.6081848144532	-403.8026123046874	64.99481964111328	80.24861145019543	-498.3826293945312	82.39281463623047	131.6220855712892	-450.9573059082031	124.7224502563477	853.8456420898439	-399.0621032714842	242.9635620117188	1190.5546875	-493.5026855468747	224.5606994628906	551.2761840820314	-536.0574340820311	145.6667327880859	306.4707031250001	-538.4262695312499	98.51333618164062	78.48839569091807	-470.4187622070312	301.4892578125	334.809783935547	-448.5922546386718	275.1808166503906	713.5223999023439	-621.8715209960936	332.2211303710938	737.5506591796876	-609.2568359374999	127.7583312988281	80.45655822753913	-334.5315246582031	264.0698547363281	815.9166259765626	-264.7701721191405	172.6166076660156	1081.324340820312	-278.0396423339841	208.2356414794922	1295.711181640625	-301.2721862792966	224.5901184082031	939.399169921875	-172.8407287597654	349.3169250488281	1329.718383789062	-277.9310913085935	412.3146057128906	768.0865478515625	-146.2289123535155	86.33367919921875	73.49107360839852	-387.0064086914062	268.3114318847656	427.5166931152344	-269.4994506835936	164.3950805664062	92.59374237060555	-401.2426147460938	204.2501678466797	27.38032722473151	-303.3601379394531	190.7856903076172	84.19803619384774	-354.8030395507812	126.6593475341797	864.3302612304689	-314.3541564941405	245.2607269287109	1191.765869140625	-247.7900390624997	252.2774963378906	558.0496826171875	-199.9609374999999	184.1117095947266	230.1267700195313	-257.9833374023437	236.2334442138672	40.20411682128913	-331.7787475585938	297.2215881347656	349.0404357910157	-327.9660339355468	355.8309326171875	793.015869140625	-138.3125610351561	378.9687194824219	802.5556030273438	-194.7851409912108	331.4094543457031	989.0756225585939	-380.3275756835935	153.297119140625	958.8268432617189	-373.2607727050779	
179	1.78	215.3687286376953	1207.853637695312	-360.9186401367185	320.1344604492188	1128.149780273438	-371.7541809082029	49.53701782226562	158.7966918945314	-476.2464599609374	258.3512573242188	800.4860839843751	-463.1947937011717	239.5525054931641	1328.542846679688	-405.7016906738278	222.4608306884766	936.4807128906251	-571.761291503906	367.8083801269531	1356.062622070312	-401.4448547363278	330.2308349609375	683.8669433593751	-651.6753540039061	2.986605644226074	169.7181549072266	-429.2942199707031	298.1966552734375	430.6310119628907	-493.3804931640624	75.82102966308594	154.2947235107423	-405.8403930664062	95.33171844482422	77.16743469238293	-501.0539855957031	109.5194320678711	128.302703857422	-453.0680847167968	133.0443420410156	855.8107910156251	-399.7664184570311	251.1237182617188	1191.692626953125	-493.7421264648435	237.7599945068359	553.3106689453126	-536.6500854492186	166.1953430175781	305.6776123046876	-539.1569824218749	128.7156524658203	76.86441802978526	-472.9742736816406	320.0295715332031	339.0404663085939	-448.6307373046874	282.4364318847656	714.5147094726564	-621.9555664062499	339.0951843261719	738.4647827148439	-609.2703247070311	128.3313446044922	81.53121948242195	-334.2787170410156	272.1802673339844	816.8952026367189	-265.1585998535155	182.1539611816406	1082.930541992188	-277.7311096191404	218.013427734375	1297.21240234375	-301.5155639648435	236.8917083740234	940.7415161132812	-172.393112182617	359.2741088867188	1330.724365234375	-278.4929504394528	426.4317932128906	771.1040649414062	-148.9590606689451	87.47464752197266	74.62510681152352	-386.7889404296875	271.9942932128906	427.9899597167969	-270.3268737792968	164.9008483886719	93.37023925781259	-401.0855712890625	204.3323516845703	27.47697639465339	-303.3187255859375	191.2757720947266	84.73472595214852	-354.5995178222656	135.1221008300781	866.2095947265626	-314.8740234374998	255.3426971435547	1193.093872070312	-247.9967956542966	259.8981628417969	559.1095581054688	-200.8856964111327	185.6341247558594	231.2331542968751	-258.1441650390624	236.3550872802734	40.26965713500984	-331.6943969726562	299.5609130859375	349.1356506347657	-328.9137573242187	369.7768249511719	795.2597045898438	-140.1010589599608	392.0345764160156	805.3818359375	-196.8614196777342	340.0510559082031	990.2067871093751	-380.8827819824216	161.9858245849609	960.3942871093751	-373.3742065429685	
180	1.79	224.8180084228516	1209.247436523438	-360.8825073242185	329.2408752441406	1129.388305664062	-372.362854003906	75.40289306640625	151.9866790771486	-478.2409667968749	266.7363891601562	802.1475219726564	-463.4443359374998	249.2112274169922	1329.839599609375	-406.0420227050778	229.8133697509766	937.7316894531251	-571.5655517578123	377.5736083984375	1356.98193359375	-402.0964660644528	337.0425109863281	684.9819335937501	-651.8132324218749	28.47808265686035	160.0737457275391	-431.5981445312499	313.7075500488281	434.3834533691407	-492.9331665039061	101.7700881958008	148.4863891601563	-407.7709960937499	126.371337890625	73.67547607421886	-503.4875793457031	137.2829284667969	124.5286254882813	-455.0448608398438	141.4349517822266	857.8209838867189	-400.5443420410155	259.3965148925781	1192.904418945312	-493.9569702148435	250.9561614990234	555.5840454101564	-537.5003051757811	186.7416534423828	304.4686279296876	-539.7853393554686	159.589599609375	74.95220947265635	-475.3281555175781	338.1506042480469	343.4332885742189	-448.4375610351562	289.484130859375	715.6114501953126	-621.9314575195311	345.9533386230469	739.5358276367189	-609.4473266601561	128.8857269287109	82.59026336669929	-334.0383911132812	280.3006896972656	817.8490600585939	-265.6593627929686	191.7756652832031	1084.573608398438	-277.386779785156	227.7888793945312	1298.726928710938	-301.7704467773435	248.95849609375	942.1848754882812	-172.0502166748045	369.2132263183594	1331.82666015625	-279.0879211425778	440.2897033691406	774.2958984375	-151.5843048095701	88.73966217041016	75.69213104248055	-386.6249694824219	275.3546142578125	428.5125122070313	-271.2070007324218	165.384033203125	94.16959381103524	-400.9851379394531	204.4156799316406	27.58443641662604	-303.2882690429688	191.7486267089844	85.27676391601571	-354.4109191894531	143.6007995605469	868.0740356445314	-315.464630126953	265.5155944824219	1194.473999023438	-248.1877746582029	267.2568054199219	560.1405029296875	-201.9192962646483	186.8895721435547	232.4610900878907	-258.3402099609374	236.4820251464844	40.33732223510749	-331.6110229492188	301.752685546875	349.2983093261719	-329.7731018066406	383.4246826171875	797.5928955078125	-141.9196472167967	405.0044250488281	808.5022583007812	-198.8680114746092	348.7677307128906	991.3778686523439	-381.4606628417966	170.7463836669922	961.9835205078126	-373.5236511230466	
181	1.8	234.3208465576172	1210.634033203125	-360.8387451171872	338.4145202636719	1130.634887695312	-372.9569702148435	102.1959915161133	144.6443328857423	-480.1598815917968	275.19873046875	803.8483276367189	-463.823028564453	258.8531799316406	1331.096435546875	-406.3997497558591	237.2455444335938	939.0468139648439	-571.3364257812498	387.2824096679688	1357.93701171875	-402.790588378906	343.7335815429688	686.1283569335939	-652.0335693359374	54.80869293212891	149.7090911865235	-433.7478027343749	328.6470642089844	438.0836791992189	-492.420684814453	128.4290313720703	142.2571258544923	-409.5546569824218	158.1135406494141	69.91836547851574	-505.69873046875	165.7307891845703	120.4432678222657	-456.8922119140625	149.8964385986328	859.8264160156251	-401.3653259277342	267.8087158203125	1194.156860351562	-494.152648925781	264.123046875	558.0692749023439	-538.5425415039061	207.2329711914062	302.8295288085939	-540.3253784179686	191.1207275390625	72.87867736816416	-477.4977722167969	355.8390502929688	347.9383850097657	-448.0146484374999	296.3081970214844	716.7936401367189	-621.8038330078124	352.8306274414062	740.7454223632814	-609.8045654296874	129.4246520996094	83.62984466552741	-333.8097839355469	288.4342346191406	818.7521362304689	-266.2749023437498	201.4967956542969	1086.217041015625	-277.011779785156	237.5760192871094	1300.214111328125	-302.0339660644528	260.7926940917969	943.68212890625	-171.8124999999998	379.138427734375	1332.993774414062	-279.7093505859372	453.8777465820312	777.5878295898438	-154.0802154541014	89.99113464355469	76.74361419677743	-386.4947814941406	278.4014282226562	429.0789184570313	-272.1258850097655	165.8331451416016	94.98119354248055	-400.9351501464844	204.5005493164062	27.70169258117683	-303.2676391601562	192.1948852539062	85.82180023193368	-354.2416076660156	152.0928192138672	869.8688964843751	-316.1141357421873	275.7792358398438	1195.8681640625	-248.3728179931638	274.2352294921875	561.1312255859375	-203.0410003662108	187.9747924804688	233.7408447265626	-258.5747375488281	236.6149291992188	40.40622329711921	-331.5272216796875	303.773681640625	349.4972839355469	-330.5631103515624	396.7606811523438	799.9489135742188	-143.7573242187498	417.8673706054688	811.8529052734375	-200.7773132324217	357.5683898925781	992.5499267578126	-382.0584411621091	179.5907135009766	963.5650024414064	-373.7245788574216	
